<svg width="21" height="21" viewBox="0 0 21 21" fill="none" xmlns="http://www.w3.org/2000/svg">
<path d="M4.03129 0.437526C2.84536 0.437526 1.87504 1.40784 1.87504 2.59378V16.0775L10.5575 7.39503C10.5216 7.2369 10.5 7.07159 10.5 6.90628V0.437526H4.03129ZM11.9375 6.01503L14.5179 3.4419L12.146 1.07003C12.0813 1.00534 12.0094 0.940651 11.9375 0.890339V6.01503ZM19.3349 0.648839L0.648137 19.3356C0.579489 19.4019 0.524733 19.4812 0.487064 19.5689C0.449395 19.6566 0.429567 19.7509 0.428738 19.8464C0.427909 19.9418 0.446094 20.0364 0.482234 20.1248C0.518373 20.2131 0.571743 20.2934 0.639228 20.3608C0.706713 20.4283 0.786963 20.4817 0.875295 20.5178C0.963627 20.554 1.05827 20.5722 1.15371 20.5713C1.24914 20.5705 1.34346 20.5507 1.43115 20.513C1.51884 20.4753 1.59815 20.4206 1.66445 20.3519L2.32354 19.6928C2.62398 20.0903 3.04517 20.39 3.54254 20.505C3.70067 20.541 3.86598 20.5625 4.03129 20.5625H16.9688C18.1547 20.5625 19.125 19.5922 19.125 18.4063V8.94034C19.125 8.36534 18.9022 7.81909 18.4925 7.41659L16.5462 5.47021L20.3527 1.66371C20.4212 1.59731 20.4759 1.51793 20.5134 1.43018C20.5509 1.34244 20.5706 1.2481 20.5713 1.15267C20.572 1.05724 20.5537 0.962621 20.5174 0.874345C20.4812 0.786068 20.4277 0.705897 20.3601 0.63851C20.2925 0.571122 20.2122 0.517868 20.1238 0.481853C20.0354 0.445839 19.9408 0.427786 19.8453 0.428747C19.7499 0.429709 19.6556 0.449666 19.568 0.487454C19.4804 0.525241 19.4011 0.580103 19.3349 0.648839ZM15.4954 8.55221C15.4307 8.78221 15.251 8.9619 15.021 9.02659C14.9539 9.04955 14.8835 9.06168 14.8125 9.06253H12.9539L14.3914 7.62503H14.8125C15.2079 7.62503 15.5313 7.94846 15.5313 8.34378C15.5313 8.41565 15.5169 8.48753 15.4954 8.55221Z" fill="#F3F3F3"/>
</svg>
