<svg width="167" height="45" viewBox="0 0 167 45" fill="none" xmlns="http://www.w3.org/2000/svg">
<g clip-path="url(#clip0_457_3976)">
<path d="M35.1119 19.0437C35.1119 17.9725 34.9648 17.1811 34.6722 16.6662C34.378 16.1513 33.7911 15.8946 32.9117 15.8946H32.5977V14.9492H41.0876C43.7291 14.9492 45.9359 15.3168 47.7063 16.0519C49.4784 16.787 50.3627 18.2573 50.3627 20.461C50.3627 21.4263 49.9792 22.3353 49.2155 23.1846C48.4502 24.0357 47.3757 24.6383 45.9921 24.996C49.5346 25.3536 51.3066 27.0109 51.3066 29.973C51.3066 32.1568 50.4371 33.6635 48.6965 34.493C46.9558 35.3225 44.7342 35.7364 42.0298 35.7364H35.1119V19.0437ZM41.5587 24.3668C42.9208 24.3668 43.9953 24.0472 44.7821 23.4065C45.569 22.7657 45.9607 21.7326 45.9607 20.3037C45.9607 18.8749 45.4946 17.8103 44.5606 17.1695C43.6283 16.5287 42.4695 16.2092 41.0859 16.2092C40.5206 16.2092 40.0793 16.2522 39.7652 16.335L39.1998 16.4294V24.3668H41.5587ZM41.5587 34.4764C43.2977 34.4764 44.6251 34.0989 45.5359 33.3423C46.4484 32.5856 46.9029 31.5161 46.9029 30.1303C46.9029 27.2328 45.121 25.7841 41.5571 25.7841H39.1982V34.1619C39.428 34.2463 39.6379 34.2993 39.8263 34.3192C40.2875 34.4251 40.8115 34.4764 41.3984 34.4764H41.5554H41.5587Z" fill="#F3F3F3"/>
<path d="M63.2828 35.7364C63.1539 35.4864 63.0415 35.0774 62.944 34.5112C62.0067 35.4897 60.8611 35.9781 59.5057 35.9781C58.1502 35.9781 57.117 35.6023 56.2856 34.8506C55.4541 34.0989 55.0392 33.1684 55.0392 32.0607C55.0392 30.6617 55.5582 29.5888 56.5947 28.8404C57.6311 28.092 59.1156 27.7195 61.0446 27.7195H62.8481V26.8586C62.8481 26.1797 62.658 25.6367 62.2794 25.2277C61.8992 24.8187 61.3223 24.6151 60.5487 24.6151C59.8792 24.6151 59.3304 24.7823 58.9023 25.1184C58.4742 25.4545 58.2609 25.88 58.2609 26.3983H55.3185C55.3185 25.6781 55.5566 25.0058 56.0327 24.38C56.5087 23.7541 57.1567 23.2624 57.9766 22.9064C58.7965 22.5505 59.709 22.3733 60.719 22.3733C62.253 22.3733 63.4746 22.7591 64.3871 23.5306C65.2995 24.3022 65.7673 25.3883 65.7921 26.7874V32.7048C65.7921 33.8853 65.9574 34.8274 66.288 35.5311V35.738H63.2861L63.2828 35.7364ZM60.0495 33.6138C60.6314 33.6138 61.1769 33.473 61.6893 33.1899C62.2018 32.9068 62.5869 32.5276 62.8448 32.0508V29.5772H61.2595C60.1702 29.5772 59.3503 29.7676 58.8015 30.1468C58.2527 30.5276 57.9783 31.064 57.9783 31.7594C57.9783 32.3257 58.1667 32.776 58.5419 33.1121C58.9172 33.4482 59.4197 33.6154 60.0495 33.6154V33.6138Z" fill="#F3F3F3"/>
<path d="M72.8406 22.615L72.9249 24.1316C73.8935 22.9594 75.1647 22.3733 76.7384 22.3733C79.4659 22.3733 80.8544 23.9379 80.904 27.0655V35.7364H77.9616V27.2361C77.9616 26.4032 77.7814 25.7873 77.4227 25.3866C77.064 24.986 76.4756 24.7856 75.6606 24.7856C74.4737 24.7856 73.591 25.3237 73.0092 26.3983V35.7364H70.0668V22.615H72.8389H72.8406Z" fill="#F3F3F3"/>
<path d="M85.1458 19.2076C85.1458 18.7556 85.2896 18.3797 85.5755 18.08C85.8615 17.7804 86.2715 17.6313 86.8037 17.6313C87.336 17.6313 87.7476 17.7804 88.0385 18.08C88.3295 18.3797 88.4749 18.7556 88.4749 19.2076C88.4749 19.6596 88.3295 20.0222 88.0385 20.3169C87.7476 20.6116 87.336 20.7589 86.8037 20.7589C86.2715 20.7589 85.8615 20.6116 85.5755 20.3169C85.2896 20.0222 85.1458 19.6513 85.1458 19.2076ZM88.27 35.7363H85.3276V22.615H88.27V35.7363Z" fill="#F3F3F3"/>
<path d="M96.3929 35.8159C95.3019 35.5112 94.4126 35.0708 93.72 34.493C93.0274 33.9151 92.6819 33.2496 92.6819 32.4929V28.8073H93.563C93.877 30.9498 94.5382 32.4929 95.5433 33.4366C96.55 34.382 97.9534 34.8539 99.7568 34.8539C100.972 34.8539 101.937 34.5923 102.65 34.0658C103.362 33.541 103.719 32.786 103.719 31.7975C103.719 30.9581 103.456 30.2445 102.932 29.655C102.408 29.0673 101.59 28.4265 100.479 27.7344L96.6111 25.4032C95.2061 24.5837 94.206 23.7343 93.6076 22.8518C93.0108 21.9693 92.7116 20.9411 92.7116 19.7656C92.7116 18.1066 93.3447 16.7953 94.6143 15.8284C95.8821 14.8631 97.5963 14.3796 99.7552 14.3796C100.929 14.3796 102.061 14.532 103.151 14.8366C104.24 15.1413 105.131 15.5817 105.823 16.1595C106.516 16.7373 106.862 17.4029 106.862 18.1596V21.8452H105.98C105.623 19.7027 104.964 18.1596 104 17.2158C103.036 16.2704 101.736 15.7986 100.101 15.7986C98.9683 15.7986 98.0724 16.0718 97.4128 16.6181C96.7533 17.1645 96.4227 17.9096 96.4227 18.855C96.4227 19.6745 96.6789 20.3517 97.193 20.8865C97.7071 21.4213 98.5402 22.0256 99.6924 22.6978L103.56 24.9976C105.028 25.8585 106.081 26.693 106.721 27.501C107.361 28.309 107.68 29.2809 107.68 30.415C107.68 32.2412 106.992 33.6751 105.62 34.7148C104.246 35.7546 102.302 36.2745 99.7866 36.2745C98.6129 36.2745 97.4806 36.1222 96.3913 35.8175L96.3929 35.8159Z" fill="#F3F3F3"/>
<path d="M114.69 22.615L114.775 23.9859C115.695 22.9114 116.953 22.3733 118.552 22.3733C120.302 22.3733 121.502 23.0438 122.147 24.3866C123.099 23.0455 124.44 22.3733 126.167 22.3733C127.612 22.3733 128.688 22.774 129.394 23.5737C130.1 24.3734 130.462 25.5539 130.478 27.1152V35.738H127.536V27.2013C127.536 26.3685 127.354 25.7575 126.99 25.3701C126.627 24.9827 126.025 24.7873 125.187 24.7873C124.517 24.7873 123.97 24.9678 123.547 25.327C123.124 25.6863 122.826 26.1582 122.658 26.7393L122.669 35.738H119.727V27.1036C119.686 25.5588 118.899 24.7873 117.366 24.7873C116.188 24.7873 115.353 25.2691 114.86 26.2311V35.738H111.918V22.6167H114.69V22.615Z" fill="#F3F3F3"/>
<path d="M142.567 35.7364C142.438 35.4864 142.326 35.0774 142.228 34.5112C141.291 35.4897 140.145 35.9781 138.79 35.9781C137.434 35.9781 136.401 35.6023 135.57 34.8506C134.738 34.0989 134.323 33.1684 134.323 32.0607C134.323 30.6617 134.842 29.5888 135.879 28.8404C136.915 28.092 138.4 27.7195 140.329 27.7195H142.132V26.8586C142.132 26.1797 141.942 25.6367 141.563 25.2277C141.183 24.8187 140.606 24.6151 139.833 24.6151C139.163 24.6151 138.614 24.7823 138.186 25.1184C137.758 25.4545 137.545 25.88 137.545 26.3983H134.603C134.603 25.6781 134.841 25.0058 135.317 24.38C135.793 23.7541 136.441 23.2624 137.261 22.9064C138.081 22.5505 138.993 22.3733 140.003 22.3733C141.537 22.3733 142.759 22.7591 143.671 23.5306C144.584 24.3022 145.051 25.3883 145.076 26.7874V32.7048C145.076 33.8853 145.241 34.8274 145.572 35.5311V35.738H142.57L142.567 35.7364ZM139.334 33.6138C139.915 33.6138 140.461 33.473 140.973 33.1899C141.486 32.9068 141.871 32.5276 142.129 32.0508V29.5772H140.544C139.454 29.5772 138.634 29.7676 138.086 30.1468C137.537 30.5276 137.262 31.064 137.262 31.7594C137.262 32.3257 137.451 32.776 137.826 33.1121C138.201 33.4482 138.704 33.6154 139.334 33.6154V33.6138Z" fill="#F3F3F3"/>
<path d="M156.252 25.3071C155.866 25.2426 155.466 25.2094 155.054 25.2094C153.705 25.2094 152.798 25.7277 152.33 26.7625V35.7363H149.387V22.615H152.196L152.269 24.0819C152.979 22.9428 153.963 22.3716 155.223 22.3716C155.642 22.3716 155.99 22.4279 156.264 22.5421L156.252 25.3071Z" fill="#F3F3F3"/>
<path d="M163.643 19.4263V22.6151H165.956V24.7973H163.643V32.1221C163.643 32.6238 163.742 32.9847 163.939 33.2082C164.137 33.4301 164.489 33.541 164.998 33.541C165.337 33.541 165.681 33.5013 166.028 33.4202V35.7001C165.359 35.8855 164.712 35.9782 164.091 35.9782C161.831 35.9782 160.701 34.7298 160.701 32.2314V24.7973H158.545V22.6151H160.701V19.4263H163.643Z" fill="#F3F3F3"/>
<path d="M15.0442 5.47703C23.7127 15.8483 28.2139 30.0773 25.4368 43.4338C22.8382 29.3885 18.013 16.8516 8.93957 5.69392L6.23853 2.34611C9.06685 2.01497 12.5696 1.50502 15.3748 1.2517C20.4992 0.769894 25.7393 0.37584 30.8918 0.536442C26.1112 2.45704 21.0546 3.90577 16.079 5.21543C15.7335 5.30483 15.3897 5.39258 15.0442 5.47868V5.47703Z" fill="#FFA800"/>
<path d="M7.02705 10.1279C16.446 18.9958 22.5771 31.2512 23.84 44.1011C21.2166 35.3276 16.2873 27.266 9.58428 21.0969C7.40394 19.0885 5.06821 17.2888 2.61182 15.7225L7.02705 10.1279Z" fill="#FFCD6D"/>
<path d="M1.92578 21.8252C11.3629 26.4495 18.9404 34.6734 22.6432 44.4999C20.0727 40.1769 16.765 36.3622 12.8159 33.2842C8.99742 30.2841 4.61525 28.0423 0 26.6731L1.92578 21.8252Z" fill="#FFCD6D"/>
<path d="M24.187 11.9309H24.144V11.9143C24.1556 11.9259 24.1705 11.9309 24.187 11.9309Z" fill="#F3F3F3"/>
</g>
<defs>
<clipPath id="clip0_457_3976">
<rect width="166.027" height="44" fill="white" transform="translate(0 0.5)"/>
</clipPath>
</defs>
</svg>
