<svg width="116" height="36" viewBox="0 0 116 36" fill="none" xmlns="http://www.w3.org/2000/svg">
<g clip-path="url(#clip0_2054_1065)">
<path d="M61.134 9.04504C61.134 10.3423 60.0831 11.3874 58.7785 11.3874C57.4739 11.3874 56.423 10.3423 56.423 9.04504C56.423 7.74775 57.4377 6.7027 58.7785 6.7027C60.1193 6.73874 61.134 7.78378 61.134 9.04504ZM51.422 13.7658C51.422 13.982 51.422 14.3423 51.422 14.3423C51.422 14.3423 50.2986 12.9009 47.9069 12.9009C43.9569 12.9009 40.8766 15.8919 40.8766 20.036C40.8766 24.1441 43.9206 27.1712 47.9069 27.1712C50.3349 27.1712 51.422 25.6937 51.422 25.6937V26.3063C51.422 26.5946 51.6395 26.8108 51.9294 26.8108H54.8647V13.2613C54.8647 13.2613 52.1831 13.2613 51.9294 13.2613C51.6395 13.2613 51.422 13.5135 51.422 13.7658ZM51.422 22.4504C50.8785 23.2432 49.7913 23.9279 48.4867 23.9279C46.1674 23.9279 44.3917 22.4865 44.3917 20.036C44.3917 17.5856 46.1674 16.1441 48.4867 16.1441C49.7551 16.1441 50.9147 16.8649 51.422 17.6216V22.4504ZM57.039 13.2613H60.5179V26.8108H57.039V13.2613ZM109.005 12.9009C106.614 12.9009 105.49 14.3423 105.49 14.3423V6.73874H102.011V26.8108C102.011 26.8108 104.693 26.8108 104.947 26.8108C105.236 26.8108 105.454 26.5586 105.454 26.3063V25.6937C105.454 25.6937 106.577 27.1712 108.969 27.1712C112.919 27.1712 115.999 24.1441 115.999 20.036C115.999 15.9279 112.919 12.9009 109.005 12.9009ZM108.425 23.8919C107.085 23.8919 106.034 23.2072 105.49 22.4144V17.5856C106.034 16.8649 107.193 16.1081 108.425 16.1081C110.745 16.1081 112.52 17.5495 112.52 20C112.52 22.4505 110.745 23.8919 108.425 23.8919ZM100.199 18.7748V26.8468H96.7204V19.1712C96.7204 16.9369 95.9956 16.036 94.0387 16.036C92.9878 16.036 91.9006 16.5766 91.2121 17.3694V26.8108H87.7332V13.2613H90.4873C90.7772 13.2613 90.9947 13.5135 90.9947 13.7658V14.3423C92.0094 13.2973 93.3502 12.9009 94.691 12.9009C96.213 12.9009 97.4814 13.3333 98.4961 14.1982C99.7282 15.2072 100.199 16.5045 100.199 18.7748ZM79.2896 12.9009C76.8978 12.9009 75.7744 14.3423 75.7744 14.3423V6.73874H72.2955V26.8108C72.2955 26.8108 74.9772 26.8108 75.2309 26.8108C75.5208 26.8108 75.7382 26.5586 75.7382 26.3063V25.6937C75.7382 25.6937 76.8616 27.1712 79.2533 27.1712C83.2034 27.1712 86.2836 24.1441 86.2836 20.036C86.3199 15.9279 83.2396 12.9009 79.2896 12.9009ZM78.7098 23.8919C77.3689 23.8919 76.318 23.2072 75.7744 22.4144V17.5856C76.318 16.8649 77.4776 16.1081 78.7098 16.1081C81.029 16.1081 82.8047 17.5495 82.8047 20C82.8047 22.4505 81.029 23.8919 78.7098 23.8919ZM69.2877 12.9009C70.3386 12.9009 70.8822 13.0811 70.8822 13.0811V16.2883C70.8822 16.2883 67.9831 15.3153 66.1712 17.3694V26.8468H62.6923V13.2613C62.6923 13.2613 65.3739 13.2613 65.6276 13.2613C65.9175 13.2613 66.1349 13.5135 66.1349 13.7658V14.3423C66.7872 13.5856 68.2005 12.9009 69.2877 12.9009ZM33.1577 25.5856C32.9766 25.1532 32.7954 24.6847 32.6142 24.2883C32.3243 23.6396 32.0343 23.027 31.7807 22.4504L31.7444 22.4144C29.244 17.009 26.5623 11.5315 23.7357 6.12613L23.627 5.90991C23.3371 5.36937 23.0472 4.79279 22.7572 4.21622C22.3949 3.56757 22.0325 2.88288 21.4527 2.23423C20.293 0.792793 18.626 0 16.8503 0C15.0384 0 13.4077 0.792793 12.2118 2.16216C11.6682 2.81081 11.2696 3.4955 10.9072 4.14414C10.6173 4.72072 10.3274 5.2973 10.0375 5.83784L9.92875 6.05405C7.13838 11.4595 4.42048 16.9369 1.92001 22.3423L1.88377 22.4144C1.6301 22.991 1.34019 23.6036 1.05028 24.2523C0.869086 24.6486 0.687893 25.0811 0.506699 25.5495C0.0355965 26.8829 -0.109358 28.1441 0.0718351 29.4414C0.470461 32.1441 2.28239 34.4144 4.78286 35.4234C5.72507 35.8198 6.70351 36 7.7182 36C8.00811 36 8.37049 35.964 8.6604 35.9279C9.85628 35.7838 11.0884 35.3874 12.2843 34.7027C13.7701 33.8739 15.1834 32.6847 16.7779 30.955C18.3724 32.6847 19.8219 33.8739 21.2715 34.7027C22.4673 35.3874 23.6994 35.7838 24.8953 35.9279C25.1852 35.964 25.5476 36 25.8375 36C26.8522 36 27.8669 35.8198 28.7729 35.4234C31.3096 34.4144 33.0853 32.1081 33.4839 29.4414C33.7738 28.1802 33.6288 26.9189 33.1577 25.5856ZM16.8141 27.4595C14.8572 25.009 13.5889 22.7027 13.154 20.7568C12.9728 19.9279 12.9366 19.2072 13.0453 18.5586C13.1178 17.982 13.3352 17.4775 13.6251 17.045C14.3136 16.0721 15.4733 15.4595 16.8141 15.4595C18.1549 15.4595 19.3508 16.036 20.0031 17.045C20.293 17.4775 20.5104 17.982 20.5829 18.5586C20.6916 19.2072 20.6554 19.964 20.4742 20.7568C20.0393 22.6667 18.771 24.973 16.8141 27.4595ZM31.2733 29.1532C31.0197 31.027 29.7513 32.6486 27.9756 33.3694C27.1059 33.7297 26.1637 33.8378 25.2215 33.7297C24.3155 33.6216 23.4095 33.3333 22.4673 32.7928C21.1627 32.0721 19.8582 30.955 18.3361 29.2973C20.7279 26.3784 22.1774 23.7117 22.721 21.3333C22.9747 20.2162 23.0109 19.2072 22.9022 18.2703C22.7572 17.3694 22.4311 16.5405 21.9238 15.8198C20.8004 14.1982 18.9159 13.2613 16.8141 13.2613C14.7123 13.2613 12.8278 14.2342 11.7045 15.8198C11.1971 16.5405 10.871 17.3694 10.726 18.2703C10.5811 19.2072 10.6173 20.2523 10.9072 21.3333C11.4508 23.7117 12.9366 26.4144 15.2921 29.3333C13.8063 30.991 12.4655 32.1081 11.1609 32.8288C10.2187 33.3694 9.3127 33.6577 8.40673 33.7658C7.42829 33.8739 6.48608 33.7297 5.65259 33.4054C3.8769 32.6847 2.60854 31.0631 2.35487 29.1892C2.24616 28.2883 2.31863 27.3874 2.68102 26.3784C2.78974 26.018 2.97093 25.6577 3.15212 25.2252C3.40579 24.6486 3.6957 24.036 3.98561 23.4234L4.02185 23.3514C6.52232 17.982 9.20398 12.5045 11.9944 7.17117L12.1031 6.95495C12.393 6.41441 12.6829 5.83784 12.9728 5.2973C13.2627 4.72072 13.5889 4.18018 13.9875 3.71171C14.7485 2.84685 15.7632 2.37838 16.8866 2.37838C18.01 2.37838 19.0247 2.84685 19.7857 3.71171C20.1843 4.18018 20.5105 4.72072 20.8004 5.2973C21.0903 5.83784 21.3802 6.41441 21.6701 6.95495L21.7788 7.17117C24.5329 12.5405 27.2146 18.018 29.7151 23.3874V23.4234C30.005 24 30.2587 24.6486 30.5486 25.2252C30.7298 25.6577 30.9109 26.018 31.0197 26.3784C31.3096 27.3153 31.4183 28.2162 31.2733 29.1532Z" fill="#E54D50"/>
</g>
<defs>
<clipPath id="clip0_2054_1065">
<rect width="116" height="36" fill="white"/>
</clipPath>
</defs>
</svg>
