<svg width="127" height="38" viewBox="0 0 127 38" fill="none" xmlns="http://www.w3.org/2000/svg">
<g clip-path="url(#clip0_2054_1026)">
<path d="M19.0831 0.0626831C8.57569 0.0626831 0.057373 8.54324 0.057373 19.0043C0.057373 29.4659 8.57569 37.9457 19.0831 37.9457C29.5916 37.9457 38.109 29.4659 38.109 19.0043C38.109 8.54392 29.5916 0.0635879 19.0828 0.0635879L19.0831 0.0626831ZM27.8081 27.382C27.4673 27.9384 26.7358 28.1148 26.1769 27.7733C21.7099 25.0567 16.0864 24.4415 9.46378 25.9479C8.8256 26.0927 8.18946 25.6946 8.04406 25.059C7.89798 24.4234 8.29624 23.7901 8.93601 23.6453C16.1834 21.9968 22.4001 22.7066 27.4151 25.7579C27.974 26.0995 28.1512 26.8255 27.8081 27.382ZM30.1368 22.2244C29.7074 22.9192 28.7941 23.1386 28.0967 22.7111C22.9826 19.5816 15.187 18.6752 9.13799 20.5033C8.3535 20.7392 7.52493 20.299 7.28683 19.5194C7.05055 18.7383 7.49289 17.915 8.27602 17.6775C15.1856 15.5902 23.7755 16.6013 29.6484 20.1943C30.3458 20.6218 30.5662 21.5311 30.1368 22.2246V22.2244ZM30.3368 16.8537C24.2049 13.2276 14.088 12.8942 8.23354 14.6633C7.29342 14.9471 6.29923 14.4188 6.01433 13.4828C5.72943 12.5464 6.2597 11.5572 7.2005 11.2727C13.921 9.24149 25.0932 9.63393 32.1529 13.8065C33.0004 14.3061 33.2775 15.3934 32.7754 16.2342C32.2756 17.076 31.1805 17.3536 30.3377 16.8537H30.3368ZM51.82 17.5486C48.5348 16.7687 47.9509 16.2213 47.9509 15.0711C47.9509 13.9845 48.9778 13.2532 50.5068 13.2532C51.9881 13.2532 53.4558 13.8085 54.9961 14.9517C55.0416 14.9863 55.1006 15.0001 55.1574 14.991C55.2165 14.9824 55.2665 14.951 55.3006 14.9037L56.9045 12.6527C56.9704 12.5599 56.9522 12.4321 56.8636 12.3613C55.0302 10.8972 52.9673 10.1854 50.5545 10.1854C47.0081 10.1854 44.5294 12.3046 44.5294 15.3366C44.5294 18.5881 46.6673 19.7394 50.3614 20.6281C53.5035 21.349 54.0351 21.9529 54.0351 23.0323C54.0351 24.2289 52.9628 24.973 51.2361 24.973C49.3186 24.973 47.7533 24.3284 46.0039 22.822C45.9607 22.7835 45.9016 22.7677 45.8471 22.7699C45.7881 22.7745 45.7358 22.8016 45.6994 22.8446L43.9001 24.9753C43.8251 25.0658 43.8342 25.197 43.9205 25.2739C45.9562 27.0834 48.4598 28.0379 51.1634 28.0379C54.9848 28.0379 57.4543 25.9592 57.4543 22.7405C57.4611 20.0247 55.8276 18.5205 51.8268 17.5515L51.82 17.5486ZM66.1012 14.3231C64.445 14.3231 63.0864 14.9727 61.9641 16.3038V14.8055C61.9641 14.6873 61.8687 14.5909 61.7505 14.5909H58.8084C58.6903 14.5909 58.5948 14.6873 58.5948 14.8055V31.4534C58.5948 31.571 58.6903 31.6683 58.8084 31.6683H61.7505C61.8687 31.6683 61.9641 31.571 61.9641 31.4534V26.199C63.0864 27.4498 64.445 28.0628 66.1012 28.0628C69.1797 28.0628 72.2968 25.7036 72.2968 21.1936C72.3013 16.6827 69.1842 14.3229 66.1035 14.3229L66.1012 14.3231ZM68.8752 21.1936C68.8752 23.4892 67.4553 25.0929 65.4197 25.0929C63.409 25.0929 61.8914 23.4168 61.8914 21.1936C61.8914 18.9702 63.409 17.2945 65.4197 17.2945C67.4212 17.2943 68.8752 18.9338 68.8752 21.1934V21.1936ZM80.2825 14.3231C76.318 14.3231 73.2123 17.3622 73.2123 21.2427C73.2123 25.0816 76.2976 28.0877 80.2348 28.0877C84.2129 28.0877 87.3277 25.059 87.3277 21.1936C87.3277 17.3414 84.2334 14.3235 80.2825 14.3235V14.3231ZM80.2825 25.1155C78.1742 25.1155 76.5838 23.4282 76.5838 21.1925C76.5838 18.9466 78.1197 17.3169 80.2348 17.3169C82.3568 17.3169 83.9562 19.0036 83.9562 21.2416C83.9562 23.487 82.4113 25.1155 80.2825 25.1155ZM95.7929 14.5909H92.5554V11.2962C92.5554 11.1781 92.46 11.0818 92.3419 11.0818H89.3997C89.2816 11.0818 89.1839 11.1781 89.1839 11.2962V14.5909H87.7708C87.6526 14.5909 87.5572 14.6873 87.5572 14.8055V17.3224C87.5572 17.4404 87.6526 17.537 87.7708 17.537H89.1839V24.0502C89.1839 26.6808 90.4993 28.0153 93.0961 28.0153C94.1503 28.0153 95.025 27.7982 95.8497 27.3322C95.9178 27.296 95.9587 27.2236 95.9587 27.1467V24.7491C95.9587 24.6767 95.9201 24.6066 95.8565 24.5682C95.7929 24.5274 95.7134 24.5252 95.6475 24.5591C95.0818 24.8418 94.5342 24.973 93.9208 24.973C92.978 24.973 92.5554 24.5455 92.5554 23.591V17.5382H95.7929C95.911 17.5382 96.0064 17.4418 96.0064 17.3235V14.8069C96.011 14.6886 95.9156 14.5923 95.7952 14.5923L95.7929 14.5909ZM107.071 14.6038V14.1991C107.071 13.0087 107.53 12.4778 108.557 12.4778C109.17 12.4778 109.663 12.5991 110.215 12.7823C110.283 12.8035 110.354 12.7929 110.408 12.7524C110.465 12.7119 110.497 12.647 110.497 12.5783V10.1105C110.497 10.0162 110.438 9.93273 110.344 9.90491C109.763 9.73232 109.018 9.55522 107.9 9.55522C105.185 9.55522 103.747 11.0784 103.747 13.9585V14.5782H102.334C102.216 14.5782 102.118 14.6746 102.118 14.7927V17.3224C102.118 17.4404 102.216 17.537 102.334 17.537H103.747V27.581C103.747 27.7009 103.845 27.7959 103.963 27.7959H106.903C107.023 27.7959 107.118 27.7009 107.118 27.581V17.5377H109.865L114.073 27.581C113.596 28.6351 113.125 28.8454 112.485 28.8454C111.967 28.8454 111.419 28.6916 110.862 28.3862C110.81 28.3591 110.747 28.3546 110.692 28.3704C110.635 28.3908 110.588 28.4315 110.565 28.4858L109.567 30.664C109.52 30.768 109.561 30.8879 109.661 30.9422C110.701 31.5032 111.639 31.7429 112.8 31.7429C114.972 31.7429 116.174 30.7341 117.231 28.0243L122.333 14.8969C122.361 14.8309 122.352 14.7562 122.311 14.6977C122.272 14.6395 122.206 14.6045 122.136 14.6045H119.073C118.98 14.6045 118.898 14.6626 118.869 14.7483L115.731 23.6679L112.296 14.7424C112.264 14.6594 112.185 14.6045 112.096 14.6045H107.071V14.6038ZM100.532 14.5909H97.59C97.4718 14.5909 97.3741 14.6873 97.3741 14.8055V27.581C97.3741 27.7009 97.4718 27.7959 97.59 27.7959H100.532C100.65 27.7959 100.748 27.7009 100.748 27.581V14.8065C100.748 14.6882 100.653 14.5918 100.532 14.5918V14.5909ZM99.0781 8.7735C97.9126 8.7735 96.9675 9.71264 96.9675 10.8728C96.9675 12.0336 97.9126 12.9739 99.0781 12.9739C100.244 12.9739 101.186 12.0336 101.186 10.8728C101.186 9.71287 100.241 8.7735 99.0781 8.7735ZM124.846 18.6987C123.683 18.6987 122.776 17.768 122.776 16.6377C122.776 15.5074 123.694 14.566 124.857 14.566C126.021 14.566 126.927 15.4966 126.927 16.6259C126.927 17.7562 126.009 18.6987 124.846 18.6987ZM124.857 14.7709C123.797 14.7709 122.995 15.6101 122.995 16.6377C122.995 17.6648 123.792 18.4927 124.846 18.4927C125.907 18.4927 126.709 17.6542 126.709 16.6259C126.709 15.5988 125.912 14.7709 124.857 14.7709ZM125.316 16.8379L125.903 17.654H125.407L124.88 16.9053H124.428V17.654H124.015V15.4907H124.982C125.489 15.4907 125.821 15.7479 125.821 16.1808C125.823 16.5355 125.616 16.7521 125.319 16.8379H125.316ZM124.967 15.8619H124.428V16.5461H124.967C125.235 16.5461 125.396 16.4151 125.396 16.2036C125.396 15.9811 125.235 15.8619 124.967 15.8619Z" fill="#C8C8C8"/>
</g>
<defs>
<clipPath id="clip0_2054_1026">
<rect width="127" height="38" fill="white"/>
</clipPath>
</defs>
</svg>
