<svg width="118" height="30" viewBox="0 0 118 30" fill="none" xmlns="http://www.w3.org/2000/svg">
<g clip-path="url(#clip0_2054_1114)">
<path d="M37.7931 23.5039L39.2622 20.1024C40.8497 21.2835 42.9586 21.8976 45.0437 21.8976C46.5839 21.8976 47.5553 21.3071 47.5553 20.4094C47.5316 17.9055 38.3381 19.8661 38.267 13.5827C38.2433 10.3937 41.0867 7.937 45.1148 7.937C47.5079 7.937 49.9011 8.52755 51.6071 9.87401L50.2328 13.3465C48.669 12.3543 46.726 11.6457 44.8778 11.6457C43.622 11.6457 42.7927 12.2362 42.7927 12.9921C42.8164 15.4488 52.081 14.1024 52.1758 20.1024C52.1758 23.3622 49.4035 25.6535 45.4228 25.6535C42.5084 25.6535 39.8308 24.9685 37.7931 23.5039ZM94.163 18.874C93.4284 20.1496 92.0541 21.0236 90.4666 21.0236C88.1208 21.0236 86.2252 19.1339 86.2252 16.7953C86.2252 14.4567 88.1208 12.5669 90.4666 12.5669C92.0541 12.5669 93.4284 13.4409 94.163 14.7165L98.2148 12.4724C96.6983 9.77952 93.7839 7.937 90.4666 7.937C85.5618 7.937 81.581 11.9055 81.581 16.7953C81.581 21.685 85.5618 25.6535 90.4666 25.6535C93.8075 25.6535 96.6983 23.8346 98.2148 21.1181L94.163 18.874ZM54.2136 0.590545H59.2843V25.3228H54.2136V0.590545ZM100.205 0.590545V25.3228H105.276V17.9055L111.294 25.3228H117.787L110.133 16.5118L117.218 8.29133H111.01L105.276 15.1181V0.590545H100.205ZM74.3541 18.9213C73.6196 20.126 72.1031 21.0236 70.3971 21.0236C68.0513 21.0236 66.1557 19.1339 66.1557 16.7953C66.1557 14.4567 68.0513 12.5669 70.3971 12.5669C72.1031 12.5669 73.6196 13.5118 74.3541 14.7402V18.9213ZM74.3541 8.29133V10.2992C73.5248 8.90551 71.4634 7.937 69.3071 7.937C64.8525 7.937 61.3457 11.8583 61.3457 16.7716C61.3457 21.685 64.8525 25.6535 69.3071 25.6535C71.4634 25.6535 73.5248 24.685 74.3541 23.2913V25.2992H79.4248V8.29133H74.3541Z" fill="#34CE83"/>
<path d="M6.44514 18.8976C6.44514 20.622 5.04715 22.0157 3.31743 22.0157C1.58771 22.0157 0.189718 20.622 0.189718 18.8976C0.189718 17.1732 1.58771 15.7795 3.31743 15.7795H6.44514V18.8976ZM8.009 18.8976C8.009 17.1732 9.40699 15.7795 11.1367 15.7795C12.8664 15.7795 14.2644 17.1732 14.2644 18.8976V26.6929C14.2644 28.4173 12.8664 29.811 11.1367 29.811C9.40699 29.811 8.009 28.4173 8.009 26.6929V18.8976Z" fill="#34CE83"/>
<path d="M11.1365 6.37794C9.40674 6.37794 8.00874 4.98424 8.00874 3.25983C8.00874 1.53542 9.40674 0.141724 11.1365 0.141724C12.8662 0.141724 14.2642 1.53542 14.2642 3.25983V6.37794H11.1365ZM11.1365 7.96062C12.8662 7.96062 14.2642 9.35432 14.2642 11.0787C14.2642 12.8031 12.8662 14.1968 11.1365 14.1968H3.29348C1.56376 14.1968 0.165771 12.8031 0.165771 11.0787C0.165771 9.35432 1.56376 7.96062 3.29348 7.96062H11.1365Z" fill="#34CE83"/>
<path d="M23.671 11.0787C23.671 9.35432 25.069 7.96062 26.7987 7.96062C28.5284 7.96062 29.9264 9.35432 29.9264 11.0787C29.9264 12.8031 28.5284 14.1968 26.7987 14.1968H23.671V11.0787ZM22.1071 11.0787C22.1071 12.8031 20.7091 14.1968 18.9794 14.1968C17.2497 14.1968 15.8517 12.8031 15.8517 11.0787V3.25983C15.8517 1.53542 17.2497 0.141724 18.9794 0.141724C20.7091 0.141724 22.1071 1.53542 22.1071 3.25983V11.0787Z" fill="#34CE83"/>
<path d="M18.9794 23.5748C20.7091 23.5748 22.1071 24.9685 22.1071 26.6929C22.1071 28.4173 20.7091 29.811 18.9794 29.811C17.2497 29.811 15.8517 28.4173 15.8517 26.6929V23.5748H18.9794ZM18.9794 22.0157C17.2497 22.0157 15.8517 20.622 15.8517 18.8976C15.8517 17.1732 17.2497 15.7795 18.9794 15.7795H26.8224C28.5521 15.7795 29.9501 17.1732 29.9501 18.8976C29.9501 20.622 28.5521 22.0157 26.8224 22.0157H18.9794Z" fill="#34CE83"/>
</g>
<defs>
<clipPath id="clip0_2054_1114">
<rect width="118" height="30" fill="white"/>
</clipPath>
</defs>
</svg>
