<svg width="36" height="36" viewBox="0 0 36 36" fill="none" xmlns="http://www.w3.org/2000/svg">
<rect x="0.5" y="0.5" width="35" height="35" rx="11.5" stroke="#FFCD6D"/>
<g clip-path="url(#clip0_556_16728)">
<path d="M15.6703 20.2531L15.389 24.2084C15.7914 24.2084 15.9656 24.0356 16.1746 23.828L18.0609 22.0253L21.9695 24.8877C22.6863 25.2872 23.1913 25.0768 23.3847 24.2283L25.9503 12.2064L25.951 12.2057C26.1784 11.146 25.5678 10.7317 24.8694 10.9916L9.78897 16.7653C8.75976 17.1648 8.77534 17.7385 9.61401 17.9985L13.4695 19.1977L22.4249 13.594C22.8464 13.315 23.2296 13.4694 22.9144 13.7485L15.6703 20.2531Z" fill="#FFCD6D"/>
</g>
<defs>
<clipPath id="clip0_556_16728">
<rect width="17" height="17" fill="white" transform="translate(9 9.5)"/>
</clipPath>
</defs>
</svg>
