<svg width="36" height="36" viewBox="0 0 36 36" fill="none" xmlns="http://www.w3.org/2000/svg">
<rect x="0.5" y="0.5" width="35" height="35" rx="11.5" stroke="#FFCD6D"/>
<g clip-path="url(#clip0_556_16730)">
<path d="M25.4947 19.7872C26.7279 14.2593 21.8804 9.24169 16.1824 10.1984C13.0995 8.28494 8.99609 10.4536 8.99609 14.1318C8.99609 14.9822 9.22997 15.7901 9.63393 16.4705C8.50709 22.0196 13.3759 26.9735 19.0739 25.9317C23.0922 28.0578 27.5146 23.8268 25.4947 19.7872ZM20.0944 23.1252C18.6061 23.7418 16.1398 23.7418 14.6516 22.9551C12.5254 21.8283 12.164 19.277 13.9925 19.277C15.3744 19.277 14.928 20.8928 16.3312 21.5306C16.969 21.8283 18.351 21.8496 19.1377 21.318C19.9243 20.7865 19.8605 19.9573 19.4353 19.5746C18.3085 18.5328 15.0555 18.9368 13.5672 17.1083C12.9294 16.3217 12.8018 14.9184 13.5885 13.8979C14.9705 12.1119 19.0314 12.0056 20.7748 13.3451C22.3906 14.5995 21.9441 16.2366 20.6472 16.2366C19.0951 16.2366 19.9031 14.1955 17.373 14.1955C15.5445 14.1955 14.8216 15.4925 16.1186 16.1303C17.862 17.0233 22.3056 16.7256 22.3056 20.1274C22.3056 21.5306 21.4339 22.5724 20.0944 23.1252Z" fill="#FFCD6D"/>
</g>
<defs>
<clipPath id="clip0_556_16730">
<rect width="17" height="17" fill="white" transform="translate(9 9.5)"/>
</clipPath>
</defs>
</svg>
